<svg width="92" height="32" viewBox="0 32 394 36"><defs id="SvgjsDefs1243"></defs><g id="SvgjsG1244" featurekey="xG21Y3-0" transform="matrix(2.0833333333333335,0,0,2.0833333333333335,15.833333333333332,15.833333333333332)" fill="#ea2088"><g xmlns="http://www.w3.org/2000/svg"><g><g><path d="M26,50c-4.5957031,0-7-12.0737305-7-24s2.4042969-24,7-24s7,12.0737305,7,24S30.5957031,50,26,50z M26,4     c-2.0390625,0-5,8.5703125-5,22s2.9609375,22,5,22s5-8.5703125,5-22S28.0390625,4,26,4z"></path></g><g><path d="M11.3330078,43.8183594c-0.96875,0-1.7373047-0.2822266-2.3027344-0.8476563     c-1.5292969-1.5283203-0.9882813-4.5483398,1.6074219-8.9760742c2.3115234-3.9443359,6.0097656-8.5415039,10.4130859-12.9443359     c4.4023438-4.402832,9-8.1005859,12.9443359-10.4130859c4.4296875-2.5961914,7.4472656-3.1357422,8.9755859-1.6074219     C44.5,10.5581055,43.9589844,13.578125,41.3632813,18.0058594c-2.3125,3.9443359-6.0107422,8.5415039-10.4130859,12.9438477     c-4.4033203,4.402832-9,8.1010742-12.9443359,10.4130859C15.2158203,42.9985352,12.984375,43.8183594,11.3330078,43.8183594z      M40.6552734,10.1918945c-0.9921875,0-2.78125,0.4902344-5.6494141,2.1708984     c-3.8007813,2.2285156-8.2548828,5.815918-12.5410156,10.1015625     c-4.2861328,4.2861328-7.8730469,8.7397461-10.1015625,12.5415039c-2.4707031,4.2148438-2.3691406,6.1005859-1.9189453,6.5507813     s2.3339844,0.5527344,6.5507813-1.9194336c3.8007813-2.2285156,8.2548828-5.815918,12.5410156-10.1015625     s7.8730469-8.7397461,10.1015625-12.5415039c2.4707031-4.2148438,2.3691406-6.1005859,1.9189453-6.550293     C41.4130859,10.300293,41.1220703,10.1918945,40.6552734,10.1918945z"></path></g><g><path d="M26,33c-11.9267578,0-24-2.4042969-24-7s12.0732422-7,24-7s24,2.4042969,24,7S37.9267578,33,26,33z M26,21     c-13.4296875,0-22,2.9614258-22,5s8.5703125,5,22,5s22-2.9614258,22-5S39.4296875,21,26,21z"></path></g><g><path d="M40.6679688,43.8183594c-1.6513672,0-3.8828125-0.8198242-6.6728516-2.4555664     c-3.9443359-2.3120117-8.5410156-6.0102539-12.9443359-10.4130859     c-4.4023438-4.4023438-8.1005859-8.9995117-10.4130859-12.9438477c-2.5957031-4.4277344-3.1367188-7.4477539-1.6074219-8.9760742     c1.5292969-1.5307617,4.5498047-0.9873047,8.9755859,1.6074219c3.9443359,2.3125,8.5419922,6.0102539,12.9443359,10.4130859     c4.4033203,4.402832,8.1015625,9,10.4130859,12.9443359c2.5957031,4.4277344,3.1367188,7.4477539,1.6074219,8.9760742     C42.4052734,43.5361328,41.6367188,43.8183594,40.6679688,43.8183594z M11.3457031,10.1918945     c-0.4667969,0-0.7578125,0.1083984-0.9013672,0.2519531c-0.4501953,0.449707-0.5517578,2.3354492,1.9189453,6.550293     C14.5917969,20.7958984,18.1787109,25.25,22.4648438,29.5356445s8.7402344,7.8730469,12.5419922,10.1015625     c4.2128906,2.4697266,6.0996094,2.3691406,6.5498047,1.9194336c0.4501953-0.4501953,0.5517578-2.3359375-1.9189453-6.5507813     c-2.2285156-3.8017578-5.8154297-8.2553711-10.1015625-12.5415039C25.25,18.1787109,20.7958984,14.5913086,16.9951172,12.362793     C14.1269531,10.6821289,12.3378906,10.1918945,11.3457031,10.1918945z"></path></g></g><g><path d="M26,29c-1.6542969,0-3-1.3457031-3-3s1.3457031-3,3-3s3,1.3457031,3,3S27.6542969,29,26,29z M26,25    c-0.5517578,0-1,0.4487305-1,1s0.4482422,1,1,1s1-0.4487305,1-1S26.5517578,25,26,25z"></path></g></g></g><g id="SvgjsG1245" featurekey="n48U4P-0" transform="matrix(4.718762177439167,0,0,4.718762177439167,134.52623659419652,9.008683585164814)" fill="#fffff"><path d="M4 5.720000000000001 l0 2.34 l-2.84 0 l0 -2.34 l2.84 0 z M4 9.66 l0 10.34 l-2.84 0 l0 -10.34 l2.84 0 z M13.28 5.720000000000001 c3.0266 0 4.54 1.1733 4.54 3.52 c0 1.3467 -0.64666 2.3466 -1.94 3 c0.88 0.25334 1.5367 0.69668 1.97 1.33 s0.65 1.3967 0.65 2.29 c0 1.28 -0.46334 2.29 -1.39 3.03 s-2.1434 1.11 -3.65 1.11 l-6.92 0 l0 -14.28 l6.74 0 z M12.879999999999999 11.5 c1.2667 0 1.9 -0.56666 1.9 -1.7 c0 -1.0933 -0.70666 -1.64 -2.12 -1.64 l-2.98 0 l0 3.34 l3.2 0 z M13.06 17.56 c1.5333 0 2.3 -0.62666 2.3 -1.88 c0 -1.36 -0.74666 -2.04 -2.24 -2.04 l-3.44 0 l0 3.92 l3.38 0 z M25.080000000000002 9.38 c3.0134 0.01334 4.52 0.9933 4.52 2.94 l0 5.48 c0 1.0133 0.12 1.7467 0.36 2.2 l-2.88 0 c-0.10666 -0.32 -0.17332 -0.65334 -0.19998 -1 c-0.84 0.85334 -2 1.28 -3.48 1.28 c-1.08 0 -1.9367 -0.27334 -2.57 -0.82 s-0.95 -1.3067 -0.95 -2.28 c0 -0.94666 0.3 -1.68 0.9 -2.2 c0.61334 -0.54666 1.7267 -0.89332 3.34 -1.04 c1.1467 -0.12 1.8733 -0.27 2.18 -0.45 s0.46 -0.45666 0.46 -0.83 c0 -0.46666 -0.14 -0.81332 -0.42 -1.04 s-0.74666 -0.34 -1.4 -0.34 c-0.6 0 -1.0533 0.12334 -1.36 0.37 s-0.48666 0.64332 -0.54 1.19 l-2.84 0 c0.06666 -1.1333 0.53332 -1.9933 1.4 -2.58 s2.0266 -0.88 3.48 -0.88 z M22.720000000000002 17.06 c0 0.88 0.58 1.32 1.74 1.32 c1.52 -0.01334 2.2866 -0.79334 2.3 -2.34 l0 -1.1 c-0.22666 0.22666 -0.8 0.39332 -1.72 0.49998 c-0.8 0.09334 -1.3867 0.25668 -1.76 0.49002 s-0.56 0.61 -0.56 1.13 z M37.74 9.38 c1.32 0 2.2766 0.33338 2.87 1 s0.89 1.7267 0.89 3.18 l0 6.44 l-2.84 0 l0 -5.86 c0 -0.85334 -0.13666 -1.4867 -0.41 -1.9 s-0.74334 -0.62 -1.41 -0.62 c-0.77334 0 -1.3333 0.23334 -1.68 0.7 s-0.52 1.2333 -0.52 2.3 l0 5.38 l-2.84 0 l0 -10.34 l2.7 0 l0 1.44 l0.06 0 c0.70666 -1.1467 1.7667 -1.72 3.18 -1.72 z M46.76 5.720000000000001 l0 7.66 l3.58 -3.72 l3.36 0 l-3.9 3.8 l4.34 6.54 l-3.44 0 l-2.84 -4.62 l-1.1 1.06 l0 3.56 l-2.84 0 l0 -14.28 l2.84 0 z"></path></g></svg>
